<svg xmlns="http://www.w3.org/2000/svg" viewBox="0 0 32 32">
  <polygon points="16,2 28,9 28,23 16,30 4,23 4,9" fill="#F0A500"/>
  <g transform="translate(8, 8) scale(0.667)" stroke="#000" stroke-width="2.5" stroke-linecap="round" stroke-linejoin="round" fill="none">
    <path d="M22 16.92v3a2 2 0 01-2.18 2 19.79 19.79 0 01-8.63-3.07A19.5 19.5 0 013.07 9.81a19.79 19.79 0 01-3.07-8.67A2 2 0 012 0h3a2 2 0 012 1.72c.127.96.361 1.903.7 2.81a2 2 0 01-.45 2.11L6.91 7.91a16 16 0 006.72 6.72l1.27-1.27a2 2 0 012.11-.45c.907.339 1.85.573 2.81.7A2 2 0 0122 14.9l.004 2.02h-.004z"/>
  </g>
</svg>
